HIERARCHY
ROOT ui
{
	 OFFSET 0 0 0
	 CHANNELS 3 XPosition YPosition Z Position
	 EndSite
	 {
	 OFFSET 0 -1 0
	 }
}
ROOT li
{
	 OFFSET 0 0 0
	 CHANNELS 3 XPosition YPosition Z Position
	 EndSite
	 {
	 OFFSET 0 -1 0
	 }
}
ROOT ul
{
	 OFFSET 0 0 0
	 CHANNELS 3 XPosition YPosition Z Position
	 EndSite
	 {
	 OFFSET 0 -1 0
	 }
}
ROOT ll
{
	 OFFSET 0 0 0
	 CHANNELS 3 XPosition YPosition Z Position
	 EndSite
	 {
	 OFFSET 0 -1 0
	 }
}
ROOT tt
{
	 OFFSET 0 0 0
	 CHANNELS 3 XPosition YPosition Z Position
	 EndSite
	 {
	 OFFSET 0 -1 0
	 }
}
ROOT tb
{
	 OFFSET 0 0 0
	 CHANNELS 3 XPosition YPosition Z Position
	 EndSite
	 {
	 OFFSET 0 -1 0
	 }
}
ROOT td
{
	 OFFSET 0 0 0
	 CHANNELS 3 XPosition YPosition Z Position
	 EndSite
	 {
	 OFFSET 0 -1 0
	 }
}
ROOT v
{
	 OFFSET 0 0 0
	 CHANNELS 3 XPosition YPosition Z Position
	 EndSite
	 {
	 OFFSET 0 -1 0
	 }
}
ROOT bn
{
	 OFFSET 0 0 0
	 CHANNELS 3 XPosition YPosition Z Position
	 EndSite
	 {
	 OFFSET 0 -1 0
	 }
}
MOTION
Frames: 24
Frame Time: 0.002
0.008860235214233398	6.633560061454773E-4	0		0.4517297058105469	-2.564690185546875	0		-0.9006250610351563	0.23586865234375	0		-0.7188034057617188	-2.32927294921875	0		0.9493944702148438	-0.7332612915039063	0		2.70632861328125	-0.2532438201904297	0		4.26676708984375	0.053662261962890624	0		5.586978515625	0.2013328857421875	0		-0.11491667175292969	5.9733251953125	0		
-0.07806076812744141	0.009072005271911621	0		0.4419210205078125	-2.559784423828125	0		-0.9058562622070313	0.22858891296386719	0		-0.7198082885742187	-2.333620849609375	0		0.9712808837890625	-0.7379581909179688	0		2.690971923828125	-0.268087646484375	0		4.277564453125	0.04740105056762695	0		5.58472900390625	0.19341690063476563	0		-0.1143442840576172	5.9749755859375	0		
0.01163735294342041	-0.003019742012023926	0		0.4699013671875	-2.565613037109375	0		-0.902957275390625	0.22816567993164064	0		-0.7187979736328125	-2.336991455078125	0		0.9491895141601563	-0.7407601318359375	0		2.6880439453125	-0.26115399169921877	0		4.2804755859375	0.04732261657714844	0		5.57863232421875	0.1936039276123047	0		-0.12604297637939454	5.963884765625	0		
-0.0794327392578125	0.0014987649917602539	0		0.44599093627929687	-2.562387939453125	0		-0.90012060546875	0.22776507568359375	0		-0.7157884521484374	-2.337379638671875	0		0.9740674438476562	-0.7424705810546876	0		2.692676025390625	-0.2733497314453125	0		4.27920654296875	0.041351654052734374	0		5.58147119140625	0.1936402282714844	0		-0.12359294128417969	5.96353662109375	0		
0.004354619979858398	0.0025848939418792725	0		0.486704833984375	-2.57341650390625	0		-0.89331396484375	0.23131199645996095	0		-0.7457805786132813	-2.332091552734375	0		0.9579641723632812	-0.7373433837890625	0		2.70479150390625	-0.25565977478027346	0		4.2740673828125	0.04748664855957031	0		5.5842021484375	0.19370733642578125	0		-0.10704027557373047	5.97393798828125	0		
-0.0669537582397461	0.007755984783172607	0		0.46458255004882815	-2.568174560546875	0		-0.886672607421875	0.23389083862304688	0		-0.7060294189453125	-2.33314990234375	0		0.9856480102539062	-0.7360501708984375	0		2.707015380859375	-0.2757523193359375	0		4.2886611328125	0.04726184844970703	0		5.5867880859375	0.19380755615234374	0		-0.10484915924072266	5.9736494140625	0		
0.012436673164367676	0.0049984450340270995	0		0.49208065795898437	-2.573877685546875	0		-0.8842633666992188	0.23358335876464845	0		-0.7054835205078125	-2.335405517578125	0		0.9630891723632813	-0.7377402954101563	0		2.715712646484375	-0.26293411254882815	0		4.2910830078125	0.04730797576904297	0		5.6081962890625	0.19357069396972656	0		-0.11704454803466798	5.96267138671875	0		
-0.0663569564819336	0.0043676128387451175	0		0.45872702026367185	-2.56135595703125	0		-0.8820489501953125	0.23331208801269532	0		-0.6471047973632813	-2.33675634765625	0		0.9842686157226562	-0.7432551879882813	0		2.706845947265625	-0.26874465942382814	0		4.29331005859375	0.047389114379882816	0		5.5914169921875	0.1941118927001953	0		-0.11620057678222656	5.9634716796875	0		
0.009552802085876465	-0.0022482969760894774	0		0.4666676330566406	-2.57461376953125	0		-0.88410107421875	0.23015591430664062	0		-0.7379081420898438	-2.335168212890625	0		0.9674407348632813	-0.7379953002929688	0		2.7030224609375	-0.26162127685546877	0		4.295328125	0.04750450134277344	0		5.60242333984375	0.19414019775390626	0		-0.09939110565185547	5.97299560546875	0		
-0.05847445678710937	0.00696700382232666	0		0.472720947265625	-2.5707998046875	0		-0.8741778564453125	0.23680165100097655	0		-0.6989544677734375	-2.33607275390625	0		0.969294677734375	-0.7380696411132812	0		2.72141552734375	-0.28390463256835935	0		4.28997607421875	0.039789546966552736	0		5.595216796875	0.1945498046875	0		-0.09602474212646485	5.9708115234375	0		
0.02313581085205078	0.00731501293182373	0		0.4775534973144531	-2.566931640625	0		-0.8626275634765626	0.23544718933105468	0		-0.72605419921875	-2.3276650390625	0		0.9760449829101563	-0.7322078247070313	0		2.7305986328125	-0.2539707794189453	0		4.29083056640625	0.05398379135131836	0		5.61994091796875	0.2023678741455078	0		-0.09482996368408203	5.970701171875	0		
-0.04263251495361328	5.346620082855224E-4	0		0.47601516723632814	-2.570914306640625	0		-0.8712479248046875	0.2365123291015625	0		-0.659716552734375	-2.338031494140625	0		0.97235107421875	-0.7381197509765625	0		2.70257080078125	-0.2753057861328125	0		4.300083984375	0.04803428268432617	0		5.59815185546875	0.19510000610351563	0		-0.09580010223388671	5.9726611328125	0		
0.01956258201599121	0.001319993019104004	0		0.46547842407226564	-2.563698486328125	0		-0.8700945434570313	0.2364160614013672	0		-0.72933349609375	-2.333754150390625	0		0.973564697265625	-0.7381021118164063	0		2.714887939453125	-0.2683933410644531	0		4.2922890625	0.05042973709106445	0		5.60415380859375	0.18730917358398438	0		-0.10920947265625	5.96188330078125	0		
-0.060506587982177736	-1.47597000002861E-4	0		0.4666024780273437	-2.563688232421875	0		-0.873210693359375	0.23242498779296875	0		-0.6613689575195313	-2.34209326171875	0		0.9715055541992188	-0.7420039672851563	0		2.720742431640625	-0.2753452758789062	0		4.29810546875	0.042570655822753906	0		5.60027001953125	0.19571531677246093	0		-0.10858623504638672	5.96185986328125	0		
0.02708085250854492	-0.011802730560302734	0		0.47736367797851564	-2.572847412109375	0		-0.8683541870117187	0.23630419921875	0		-0.7273010864257813	-2.33385009765625	0		0.975415771484375	-0.7380044555664063	0		2.738929443359375	-0.2555193634033203	0		4.3030107421875	0.04873339462280273	0		5.601052734375	0.19602684020996095	0		-0.22534620666503907	5.95108984375	0		
-0.05194782257080078	0.006737698078155518	0		0.48120233154296876	-2.568859375	0		-0.8636576538085937	0.24020542907714842	0		-0.68751904296875	-2.3326064453125	0		0.9791427001953125	-0.7349909057617188	0		2.722198486328125	-0.2750325012207031	0		4.2916435546875	0.049200611114501955	0		5.60167626953125	0.19633157348632813	0		-0.09358114624023438	5.9726064453125	0		
0.02551466178894043	0.004312400817871094	0		0.4709506530761719	-2.56159326171875	0		-0.87315234375	0.2413917999267578	0		-0.6889537963867187	-2.334563232421875	0		0.9985928344726562	-0.7392686767578125	0		2.74494921875	-0.2622901306152344	0		4.299287109375	0.05730039596557617	0		5.6063515625	0.206548095703125	0		-0.10756610870361329	5.96190576171875	0		
0.02859425163269043	-0.01169178295135498	0		0.5051688842773437	-2.576165771484375	0		-0.8776838989257812	0.24649794006347656	0		-0.6905115356445313	-2.3365048828125	0		0.977029296875	-0.7377626953125	0		2.72310107421875	-0.274709228515625	0		4.29966796875	0.057527233123779296	0		5.6215341796875	0.19654714965820314	0		-0.10743024444580078	5.9619501953125	0		
0.01906007957458496	-0.00244563889503479	0		0.4697906188964844	-2.56341162109375	0		-0.8773992919921875	0.24652345275878906	0		-0.703034912109375	-2.33122802734375	0		0.9993274536132812	-0.7390839233398437	0		2.709577392578125	-0.26528814697265624	0		4.3048076171875	0.049650829315185545	0		5.60282373046875	0.19717120361328125	0		-0.09413231658935547	5.97375634765625	0		
0.01928297233581543	-0.0023796861171722413	0		0.4799247436523438	-2.57251806640625	0		-0.8663748779296875	0.2363549346923828	0		-0.6877960815429688	-2.334467529296875	0		0.98065283203125	-0.73462890625	0		2.712506591796875	-0.2811890869140625	0		4.29303076171875	0.050081226348876955	0		5.60304052734375	0.19741731262207032	0		-0.22455033874511718	5.9512734375	0		
0.04351850128173828	0.0012404669523239135	0		0.48527243041992185	-2.56652783203125	0		-0.8580678100585938	0.2442509765625	0		-0.683492431640625	-2.330490478515625	0		0.9890244140625	-0.72468212890625	0		2.73722021484375	-0.252498779296875	0		4.30830419921875	0.05598872375488281	0		5.60734912109375	0.20556773376464843	0		-0.09116018676757813	5.97083251953125	0		
0.02668983268737793	0.004638775825500489	0		0.49847991943359377	-2.564682861328125	0		-0.876920654296875	0.24666590881347655	0		-0.6874002685546875	-2.334352294921875	0		0.980966796875	-0.734428466796875	0		2.7079296875	-0.27380731201171876	0		4.30045361328125	0.05831808471679688	0		5.62230322265625	0.19749703979492186	0		-0.10735462188720703	5.9622109375	0		
-0.0502189826965332	0.007168776988983154	0		0.48044232177734375	-2.572249755859375	0		-0.8768665771484375	0.24673248291015626	0		-0.6553948974609375	-2.3398818359375	0		0.9999617919921875	-0.7386813354492188	0		2.713256103515625	-0.2597664489746094	0		4.2963994140625	0.05256285858154297	0		5.59755078125	0.20815933227539063	0		-0.10741318511962891	5.96229248046875	0		
0.029450349807739258	-0.011241861343383789	0		0.47844964599609374	-2.5741162109375	0		-0.8768681640625	0.24680615234375	0		-0.726285400390625	-2.33547314453125	0		0.9779989013671875	-0.7371644287109375	0		2.723998291015625	-0.2738380126953125	0		4.2964013671875	0.052721065521240236	0		5.59921142578125	0.19030445861816406	0		-0.12271188354492188	5.951662109375	0		
